# xmcd
#
# Track frame offsets: 
#        150
#        17867
#        33055
#        51062
#        70242
#        86469
#        101817
#        119502
#        136334
#        155719
#        173952
#        189107
#
# Disc length: 2769 seconds
#
# Revision: 3
# Processed by: cddbd v1.5.2PL0 Copyright (c) Steve Scherf et al.
# Submitted via: ExactAudioCopy v1.1
#
DISCID=9b0acf0c
DTITLE=Akon - Trouble
DYEAR=2004
DGENRE=R&B
TTITLE0=Locked Up
TTITLE1=Trouble Nobody
TTITLE2=Bananza (Belly Dancer)
TTITLE3=Gangsta
TTITLE4=Pot Of Gold
TTITLE5=Show Out
TTITLE6=Lonely
TTITLE7=When The Time's Right
TTITLE8=Journey
TTITLE9=Don't Let Up
TTITLE10=I Won't
TTITLE11=Locked Up (Remix) (Feat. Styles P)
EXTD=
EXTT0=
EXTT1=
EXTT2=
EXTT3=
EXTT4=
EXTT5=
EXTT6=
EXTT7=
EXTT8=
EXTT9=
EXTT10=
EXTT11=
PLAYORDER=
